<svg width="44" height="47" viewBox="0 0 44 47" fill="none" xmlns="http://www.w3.org/2000/svg">
<rect x="7.21484" y="23.1104" width="22.54" height="22.54" transform="rotate(-45 7.21484 23.1104)" fill="#A9AFC5"/>
<rect y="23.1831" width="32.7547" height="3.38099" transform="rotate(-45 0 23.1831)" fill="#28366D"/>
<rect x="28.8594" y="10.459" width="11.4101" height="3.38099" transform="rotate(-135 28.8594 10.459)" fill="#28366D"/>
<rect x="41.918" y="23.9695" width="8.48815" height="1.69763" transform="rotate(-135 41.918 23.9695)" fill="#28366D"/>
<rect x="20.7422" y="43.7183" width="11.0931" height="3.38099" transform="rotate(-45 20.7422 43.7183)" fill="#28366D"/>
<rect x="36.0547" y="27.7317" width="8.48815" height="1.69763" transform="rotate(-45 36.0547 27.7317)" fill="#28366D"/>
<rect x="2.48438" y="20.7988" width="32.5068" height="3.38099" transform="rotate(45 2.48438 20.7988)" fill="#28366D"/>
<rect x="22.2539" y="28.6321" width="15.778" height="0.901598" transform="rotate(-45 22.2539 28.6321)" fill="white"/>
<rect x="28.7266" y="23.4602" width="8.51872" height="0.901598" transform="rotate(-135 28.7266 23.4602)" fill="white"/>
<rect x="22.8672" y="29.3208" width="8.51872" height="0.901598" transform="rotate(-135 22.8672 29.3208)" fill="white"/>
<rect x="12.1094" y="27.9558" width="15.778" height="0.901598" transform="rotate(-45 12.1094 27.9558)" fill="white"/>
<rect x="18.0195" y="23.145" width="7.38054" height="6.95147" transform="rotate(-45 18.0195 23.145)" fill="#28366D"/>
</svg>
