<svg width="36" height="35" viewBox="0 0 36 35" fill="none" xmlns="http://www.w3.org/2000/svg">
<path fill-rule="evenodd" clip-rule="evenodd" d="M18 4.37504C10.7513 4.37504 4.87504 10.2513 4.87504 17.5C4.87504 24.7488 10.7513 30.625 18 30.625C25.2488 30.625 31.125 24.7488 31.125 17.5C31.125 10.2513 25.2488 4.37504 18 4.37504ZM1.95837 17.5C1.95837 8.64047 9.14047 1.45837 18 1.45837C26.8596 1.45837 34.0417 8.64047 34.0417 17.5C34.0417 26.3596 26.8596 33.5417 18 33.5417C9.14047 33.5417 1.95837 26.3596 1.95837 17.5ZM18 10.2084C18.8055 10.2084 19.4584 10.8613 19.4584 11.6667V16.0417H23.8334C24.6388 16.0417 25.2917 16.6946 25.2917 17.5C25.2917 18.3055 24.6388 18.9584 23.8334 18.9584H19.4584V23.3334C19.4584 24.1388 18.8055 24.7917 18 24.7917C17.1946 24.7917 16.5417 24.1388 16.5417 23.3334V18.9584H12.1667C11.3613 18.9584 10.7084 18.3055 10.7084 17.5C10.7084 16.6946 11.3613 16.0417 12.1667 16.0417H16.5417V11.6667C16.5417 10.8613 17.1946 10.2084 18 10.2084Z" fill="#007AFF"/>
</svg>
