<svg width="21" height="20" viewBox="0 0 21 20" fill="none" xmlns="http://www.w3.org/2000/svg">
<path fill-rule="evenodd" clip-rule="evenodd" d="M10.5 2.50004C6.3579 2.50004 3.00004 5.85791 3.00004 10C3.00004 12.7751 4.50672 15.1991 6.75065 16.4972C7.14903 16.7276 7.28517 17.2374 7.05471 17.6358C6.82426 18.0342 6.31449 18.1703 5.9161 17.9399C3.17836 16.3562 1.33337 13.3941 1.33337 10C1.33337 4.93743 5.43743 0.833374 10.5 0.833374C15.5626 0.833374 19.6667 4.93743 19.6667 10C19.6667 13.5366 17.6638 16.6039 14.7343 18.1321C14.722 18.1385 14.7097 18.1449 14.6973 18.1514C14.4281 18.2921 14.1289 18.4483 13.7879 18.5372C13.4046 18.6372 13.0178 18.6434 12.5525 18.5803C12.1255 18.5225 11.6603 18.305 11.2977 18.0852C10.9352 17.8654 10.5272 17.5535 10.2784 17.2017C9.66509 16.3343 9.66577 15.5047 9.66664 14.4539C9.66668 14.414 9.66671 14.3739 9.66671 14.3334V8.67855L7.75596 10.5893C7.43053 10.9147 6.90289 10.9147 6.57745 10.5893C6.25202 10.2639 6.25202 9.73622 6.57745 9.41078L9.91079 6.07745C10.0671 5.92117 10.279 5.83337 10.5 5.83337C10.7211 5.83337 10.933 5.92117 11.0893 6.07745L14.4226 9.41078C14.7481 9.73622 14.7481 10.2639 14.4226 10.5893C14.0972 10.9147 13.5696 10.9147 13.2441 10.5893L11.3334 8.67855V14.3334C11.3334 15.5428 11.3582 15.8421 11.6392 16.2394C11.6952 16.3186 11.8785 16.4883 12.1617 16.66C12.445 16.8317 12.6802 16.9157 12.7763 16.9287C13.0984 16.9724 13.2548 16.9539 13.3674 16.9245C13.5066 16.8882 13.6442 16.8209 13.9634 16.6544C16.3641 15.4021 18 12.8914 18 10C18 5.8579 14.6422 2.50004 10.5 2.50004Z" fill="#59626B"/>
</svg>
